<svg width="32" height="32" viewBox="0 0 32 32" fill="none" xmlns="http://www.w3.org/2000/svg">
<path d="M28.8648 21.8218L24.3401 21.3052C23.2535 21.1805 22.1846 21.5546 21.4186 22.3206L18.1409 25.5983C13.0996 23.0331 8.96685 18.9182 6.40167 13.8591L9.69721 10.5635C10.4632 9.79755 10.8373 8.72873 10.7126 7.64209L10.196 3.15303C9.98223 1.35384 8.46807 0 6.65106 0H3.56929C1.55634 0 -0.118152 1.67449 0.00654383 3.68744C0.950671 18.9004 13.1174 31.0493 28.3126 31.9935C30.3255 32.1182 32 30.4437 32 28.4307V25.3489C32.0178 23.5497 30.664 22.0356 28.8648 21.8218Z" fill="#00A8FF"/>
</svg>
