<svg width="32" height="32" viewBox="0 0 32 32" fill="none" xmlns="http://www.w3.org/2000/svg">
<path fill-rule="evenodd" clip-rule="evenodd" d="M6.89067 32H25.1093C28.9138 32 32 28.9138 32 25.1093V6.89067C32 3.08622 28.9138 0 25.1093 0H6.89067C3.08622 0 0 3.08622 0 6.89067V25.1093C0 28.9138 3.08622 32 6.89067 32ZM18.1689 11.072L7.39553 15.5094C5.50042 16.2489 6.60976 16.9423 6.60976 16.9423C6.60976 16.9423 8.22754 17.4969 9.6142 17.9129C11.0009 18.3289 11.7404 17.8667 11.7404 17.8667L18.2613 13.4827C20.5724 11.9111 20.0178 13.2054 19.4631 13.76C18.2613 14.9618 16.2738 16.8569 14.6098 18.3823C13.8702 19.0294 14.24 19.584 14.5635 19.8614C15.5041 20.6573 17.7189 22.1044 18.7258 22.7623C19.0054 22.945 19.1918 23.0668 19.232 23.0969C19.4631 23.2818 20.7573 24.1138 21.5431 23.9289C22.3289 23.744 22.4213 22.6809 22.4213 22.6809L23.5769 15.4205C23.6807 14.7315 23.7846 14.0573 23.8813 13.4297C24.1288 11.8226 24.3294 10.5205 24.3626 10.0551C24.5013 8.48359 22.8373 9.1307 22.8373 9.1307C22.8373 9.1307 19.232 10.6098 18.1689 11.072Z" fill="#00A8FF"/>
</svg>
