<svg width="96" height="88" viewBox="0 0 96 88" fill="none" xmlns="http://www.w3.org/2000/svg">
<path d="M30.9982 62.0608C37.168 62.0608 42.1696 56.851 42.1696 50.4245C42.1696 43.9979 37.168 38.7881 30.9982 38.7881C24.8284 38.7881 19.8268 43.9979 19.8268 50.4245C19.8268 56.851 24.8284 62.0608 30.9982 62.0608Z" fill="url(#paint0_linear_1201_2)"/>
<path d="M82.0001 32.4018C82.0001 34.1838 81.8548 35.918 81.5643 37.6045C79.0462 52.5762 65.8424 63.9999 49.943 63.9999V45.687C55.5118 45.687 60.3059 42.3617 62.3558 37.6045H49.943V27.1514H82.0001V32.3859V32.4018Z" fill="url(#paint1_linear_1201_2)"/>
<path d="M82 0.0164187V19.7681H48.302C40.9902 19.7681 34.8228 24.9564 33.122 32V31.9507H14C14 15.0067 28.576 0 45.2978 0C45.9654 0 82 0.0164187 82 0.0164187Z" fill="url(#paint2_linear_1201_2)"/>
<path d="M30.9982 62.0608C37.168 62.0608 42.1696 56.851 42.1696 50.4245C42.1696 43.9979 37.168 38.7881 30.9982 38.7881C24.8284 38.7881 19.8268 43.9979 19.8268 50.4245C19.8268 56.851 24.8284 62.0608 30.9982 62.0608Z" fill="url(#paint3_linear_1201_2)"/>
<path d="M12.6468 87.1467C11.7617 87.4667 9.99143 88 7.90613 88C5.5658 88 3.64552 87.3905 2.14531 85.9276C0.825118 84.6324 0 82.5295 0 80.0914C0.0300043 75.4133 3.18045 72 8.35619 72C10.1414 72 11.5366 72.3962 12.1967 72.7162L11.7167 74.3619C10.8916 73.9962 9.87141 73.6914 8.31119 73.6914C4.56065 73.6914 2.1153 76.0686 2.1153 79.9848C2.1153 83.901 4.47064 86.3086 8.07115 86.3086C9.37634 86.3086 10.2615 86.1257 10.7265 85.8971V81.219H7.59108V79.5886H12.6768V87.1162L12.6468 87.1467Z" fill="white"/>
<path d="M23.1028 72.1689V87.8337H21.1075V72.1689H23.1028Z" fill="white"/>
<path d="M43.7321 87.1467C42.847 87.4667 41.0767 88 38.9914 88C36.6511 88 34.7308 87.3905 33.2306 85.9276C31.9104 84.6324 31.0853 82.5295 31.0853 80.0914C31.1153 75.4133 34.2658 72 39.4415 72C41.2268 72 42.622 72.3962 43.2821 72.7162L42.802 74.3619C41.9769 73.9962 40.9567 73.6914 39.3965 73.6914C35.646 73.6914 33.2006 76.0686 33.2006 79.9848C33.2006 83.901 35.556 86.3086 39.1565 86.3086C40.4617 86.3086 41.3468 86.1257 41.8118 85.8971V81.219H38.6764V79.5886H43.7621V87.1162L43.7321 87.1467Z" fill="white"/>
<path d="M60.1716 80.4889H54.1708V86.1423H60.8467V87.8337H52.1755V72.1689H60.5017V73.8604H54.1708V78.8128H60.1716V80.4889Z" fill="white"/>
<path d="M77.306 87.8337L75.3408 84.3747C74.5457 83.0489 74.0356 82.1956 73.5555 81.2813H73.5105C73.0754 82.1804 72.6404 83.0185 71.8453 84.3899L69.985 87.8337H67.7047L72.4154 79.9099L67.8847 72.1689H70.195L72.2353 75.8413C72.8054 76.8623 73.2405 77.6547 73.6605 78.4928H73.7355C74.1706 77.5632 74.5607 76.847 75.1307 75.8413L77.231 72.1689H79.5114L74.8157 79.788L79.6164 87.8337H77.306Z" fill="white"/>
<path d="M95.3258 80.4889H89.3249V86.1423H96.0009V87.8337H87.3296V72.1689H95.6558V73.8604H89.3249V78.8128H95.3258V80.4889Z" fill="white"/>
<defs>
<linearGradient id="paint0_linear_1201_2" x1="5.17674" y1="26.5771" x2="55.8859" y2="69.7443" gradientUnits="userSpaceOnUse">
<stop stop-color="#00D1FF"/>
<stop offset="0.15" stop-color="#00CCFF"/>
<stop offset="0.31" stop-color="#00BEFF"/>
<stop offset="0.49" stop-color="#00A8FF"/>
<stop offset="0.67" stop-color="#0088FF"/>
<stop offset="0.85" stop-color="#0060FF"/>
<stop offset="1" stop-color="#003BFF"/>
</linearGradient>
<linearGradient id="paint1_linear_1201_2" x1="81.3055" y1="26.9288" x2="51.0431" y2="55.2071" gradientUnits="userSpaceOnUse">
<stop stop-color="#2D2D33"/>
<stop offset="1" stop-color="#2D3A4F"/>
</linearGradient>
<linearGradient id="paint2_linear_1201_2" x1="63.0363" y1="6.56747" x2="21.0508" y2="30.0177" gradientUnits="userSpaceOnUse">
<stop stop-color="#2D2D33"/>
<stop offset="1" stop-color="#2D3A4F"/>
</linearGradient>
<linearGradient id="paint3_linear_1201_2" x1="5.17674" y1="26.5771" x2="55.8859" y2="69.7443" gradientUnits="userSpaceOnUse">
<stop stop-color="#00D1FF"/>
<stop offset="0.15" stop-color="#00CCFF"/>
<stop offset="0.31" stop-color="#00BEFF"/>
<stop offset="0.49" stop-color="#00A8FF"/>
<stop offset="0.67" stop-color="#0088FF"/>
<stop offset="0.85" stop-color="#0060FF"/>
<stop offset="1" stop-color="#003BFF"/>
</linearGradient>
</defs>
</svg>
