<svg width="24" height="20" viewBox="0 0 24 20" fill="none" xmlns="http://www.w3.org/2000/svg">
<path d="M21.6 0H2.4C1.08 0 0.012 1.125 0.012 2.5L0 17.5C0 18.875 1.08 20 2.4 20H21.6C22.92 20 24 18.875 24 17.5V2.5C24 1.125 22.92 0 21.6 0ZM21.12 5.3125L12.636 10.8375C12.252 11.0875 11.748 11.0875 11.364 10.8375L2.88 5.3125C2.58 5.1125 2.4 4.775 2.4 4.4125C2.4 3.575 3.276 3.075 3.96 3.5125L12 8.75L20.04 3.5125C20.724 3.075 21.6 3.575 21.6 4.4125C21.6 4.775 21.42 5.1125 21.12 5.3125Z" fill="white"/>
</svg>
