<svg width="32" height="32" viewBox="0 0 32 32" fill="none" xmlns="http://www.w3.org/2000/svg">
<path d="M0.133785 15.8559C0.132753 18.6506 0.866249 21.3787 2.26042 23.7834L0 32L8.44643 29.7952C10.7735 31.0586 13.3937 31.7245 16.0601 31.7255H16.067C24.8481 31.7255 31.9963 24.6113 32 15.8688C32.0015 11.6315 30.3457 7.64754 27.3376 4.65033C24.3292 1.65324 20.3289 0.00193787 16.067 0C7.28448 0 0.13728 7.11308 0.133727 15.8559H0.133785ZM5.16369 23.3694L4.84839 22.8709C3.52269 20.7724 2.82283 18.3472 2.82398 15.857C2.82678 8.59017 8.76723 2.6783 16.0721 2.6783C19.6095 2.67972 22.934 4.05238 25.4346 6.54348C27.9349 9.0344 29.3108 12.3459 29.3098 15.8677C29.3067 23.1347 23.366 29.0475 16.0671 29.0475H16.0619C13.6852 29.0462 11.3544 28.4109 9.32156 27.21L8.83776 26.9246L3.8255 28.2328L5.16369 23.3694Z" fill="#00A8FF"/>
<path fill-rule="evenodd" clip-rule="evenodd" d="M12.0849 9.22727C11.7867 8.56732 11.4728 8.55403 11.1891 8.54245C10.957 8.53258 10.6913 8.53321 10.4261 8.53321C10.1607 8.53321 9.72935 8.63246 9.36461 9.02906C8.99964 9.42565 7.97107 10.3844 7.97107 12.3343C7.97107 14.2845 9.39778 16.1687 9.59665 16.4333C9.7957 16.6976 12.3508 20.827 16.3973 22.4156C19.7603 23.7359 20.4446 23.4733 21.1746 23.4072C21.9045 23.3412 23.53 22.4487 23.8617 21.5232C24.1935 20.5978 24.1935 19.8047 24.094 19.6389C23.9944 19.4737 23.729 19.3746 23.3309 19.1764C22.9327 18.9782 20.9755 18.0193 20.6105 17.8871C20.2455 17.755 19.9801 17.689 19.7147 18.0858C19.4492 18.4822 18.6868 19.3746 18.4544 19.6389C18.2222 19.9038 17.99 19.9368 17.5918 19.7386C17.1936 19.5398 15.9114 19.1217 14.3903 17.7716C13.2068 16.7211 12.4079 15.4238 12.1755 15.0271C11.9433 14.6306 12.1507 14.4159 12.3504 14.2184C12.5291 14.0408 12.7486 13.7558 12.9476 13.5243C13.1463 13.2929 13.2127 13.1277 13.3454 12.8634C13.4781 12.5988 13.4117 12.3673 13.3122 12.1691C13.2127 11.9709 12.439 10.0109 12.0849 9.22727Z" fill="#00A8FF"/>
</svg>
